<?xml version="1.0" encoding="UTF-8"?>
<svg id="Layer_1" data-name="Layer 1" xmlns="http://www.w3.org/2000/svg" viewBox="0 0 124 34.36">
  <defs>
    <style>
      .cls-1 {
        fill: #e2d0e1;
      }

      .cls-2 {
        fill: none;
      }

      .cls-3 {
        fill: #8a5d3b;
      }
    </style>
  </defs>
  <path class="cls-3" d="m83.84,14.19h.11c.19.02,1.02-2.03,1.13-2.3.4-.95.75-1.92,1.04-2.91,1.35-4.61,1.27-8.62-.19-8.97-1.45-.35-3.73,3.11-5.08,7.71-.36,1.24-.62,2.43-.78,3.52-.16-1.05-.41-2.18-.75-3.36-1.35-4.61-3.63-8.06-5.08-7.71-1.45.35-1.54,4.36-.19,8.97.52,1.78,1.3,3.38,2.08,5.05h.15c-2.91,1.41-4.92,4.38-4.92,7.83,0,4.81,3.9,8.7,8.7,8.7s8.7-3.9,8.7-8.7c0-3.45-2.02-6.43-4.93-7.83Zm-3.77,11.11c-1.81,0-3.27-1.46-3.27-3.27s1.46-3.27,3.27-3.27,3.27,1.46,3.27,3.27-1.46,3.27-3.27,3.27Zm5-8.23c-.25-.41-.65-.74-1.33-1.05-.28-.14-.54-.32-.35-.65.15-.26.49-.24.74-.11.58.31,1.23.74,1.62,1.33.42.62-.38.95-.68.47Zm1.44,1.66c-.22-.05-.51-.51-.41-.76.08-.22.31-.37.56-.29.25.1.48.49.38.77-.07.25-.28.36-.53.29Z"/>
  <path class="cls-3" d="m0,19.16c0-10.04.31-10.71,4.8-10.71s4.9.41,5.55,6.13q.68,5.98.75,5.98t.77-5.98c.65-5.72,1.06-6.13,5.55-6.13s4.78.68,4.78,10.71-.22,10.71-3.19,10.71-3.14-.68-3.14-8.54c0-.48,0-1.28-.1-1.28s-.12.17-.84,4.83c-.72,4.68-.97,5-3.84,5s-3.14-.31-3.86-5c-.7-4.66-.72-4.83-.82-4.83s-.1.8-.1,1.28c0,7.87-.31,8.54-3.14,8.54-2.97,0-3.19-.68-3.19-10.71Zm7.99-8.59c.24,0,.41-.19.41-.43,0-.29-.36-.6-.63-.6-.24,0-.43.19-.43.43,0,.27.41.6.65.6Zm12.23,0c.24,0,.41-.19.41-.43,0-.29-.36-.6-.63-.6-.24,0-.43.19-.43.43,0,.27.41.6.65.6Z"/>
  <path class="cls-3" d="m34.19,28.86c-.92.6-2.8,1.09-4.85,1.09-3.31,0-5.57-1.57-5.57-4.92,0-10.04.22-10.91,3.52-10.91,3.09,0,3.47.58,3.52,8.81,0,.75.36,1.16,1.01,1.16h.89c.65,0,.94-.36.94-1.16v-.92c0-7.38.22-7.89,3.52-7.89s3.52.51,3.52,7.89-.22,7.87-3.52,7.87c-1.57,0-2.44-.29-2.99-1.01Zm4.2-13.37c0,.27.41.6.65.6s.41-.19.41-.43c0-.29-.36-.6-.63-.6-.24,0-.43.19-.43.43Z"/>
  <path class="cls-3" d="m42.49,24.92c-.05-1.45-.1-3.38-.1-5.77,0-10.04.27-10.71,3.76-10.71s3.76.68,3.76,10.71c0,1.83-.02,3.4-.05,4.66,0,.63.24.92.77.92h.24c.58,0,.87.17.87,2.56s-.36,2.56-2.29,2.56h-1.88c-3.31,0-4.97-1.47-5.09-4.92Zm5.04-15.2c0,.27.41.6.65.6s.41-.19.41-.43c0-.29-.36-.6-.63-.6-.24,0-.43.19-.43.43Z"/>
  <path class="cls-3" d="m61.31,14.26c2.27-5.45,2.65-5.82,6.3-5.82s3.74.36,1.5,5.82c-.97,2.29-1.71,3.69-2.39,4.54.6.94,1.42,2.39,2.34,4.49,2.73,6.18,2.68,6.59-.97,6.59s-4.08-.41-6.88-6.59l-.97-2.17c-.05,8.16-.48,8.76-3.76,8.76-3.52,0-3.76-.68-3.76-10.71s.24-10.71,3.76-10.71c3.23,0,3.72.58,3.76,8.37l1.06-2.56Zm-2.8-3.74c.24,0,.39-.19.39-.41,0-.36-.65-.82-.97-.82-.22,0-.36.17-.36.41,0,.17.1.31.29.36.27.07.34.46.65.46Zm10.91-.12c.24,0,.39-.19.39-.41,0-.36-.65-.82-.97-.82-.22,0-.36.17-.36.41,0,.17.1.31.29.36.27.07.34.46.65.46Z"/>
  <path class="cls-3" d="m100.91,14.04c3.31,0,5.57,1.57,5.57,4.92,0,10.04-.22,10.91-3.52,10.91-3.09,0-3.47-.58-3.52-8.81,0-.75-.36-1.16-1.01-1.16h-.89c-.65,0-.94.36-.94,1.16v.92c0,7.38-.22,7.89-3.52,7.89s-3.52-.51-3.52-7.89.22-7.87,3.52-7.87c1.57,0,2.44.29,2.99,1.01.92-.6,2.8-1.09,4.85-1.09Zm3.6,3.33c.24.53,1.06.29.75-.36-.31-.65-.89-1.16-1.45-1.54-.24-.17-.56-.22-.75.02-.22.29,0,.51.27.68.63.39.99.77,1.18,1.21Z"/>
  <path class="cls-3" d="m113.7,28.06h-.92c-3.31,0-5.09-1.09-5.09-4.44v-4.66c0-3.35,1.79-4.92,5.09-4.92h1.21c1.13,0,3.47.41,4.2.87.46-.7,1.26-.8,2.58-.8,3.02,0,3.23.48,3.23,7.65v7.67c0,3.35-1.79,4.92-5.09,4.92h-5.65c-3.31,0-5.09-1.57-5.09-4.92v-.05c0-.43.29-.72.72-.72h5.36c.39,0,.68.24.8.72.1.34.29.53.7.55h.68c.65,0,1.11-.41,1.11-1.16v-1.45c-.72.43-2.58.72-3.84.72Zm3.84-6.61c0-.89,0-1.69.02-2.39l-.02.12c-.12-.07-.29-.12-.51-.12h-1.74c-.65,0-.89.41-.89,1.16v2.15c0,.75.24,1.16.89,1.16h1.74c.22,0,.39-.05.51-.12v-1.95Zm4.85-5.33c.24,0,.41-.19.41-.43,0-.29-.36-.6-.63-.6-.24,0-.43.19-.43.43,0,.27.41.6.65.6Z"/>
  <ellipse class="cls-1" cx="76.65" cy="8.36" rx="1.32" ry="4.44" transform="translate(.79 22.18) rotate(-16.55)"/>
  <ellipse class="cls-1" cx="83.49" cy="8.36" rx="4.44" ry="1.32" transform="translate(51.69 86.02) rotate(-73.45)"/>
  <path class="cls-2" d="m86.65,17.68c-.25-.07-.48.07-.56.29-.1.25.18.71.41.76.25.07.46-.04.53-.29.1-.27-.13-.67-.38-.77Z"/>
  <path class="cls-2" d="m84.13,15.27c-.25-.12-.59-.14-.74.11-.19.33.07.5.35.65.68.3,1.07.63,1.33,1.05.31.48,1.1.14.68-.47-.39-.6-1.04-1.02-1.62-1.33Z"/>
</svg>